# xmcd
# 
# Track frame offsets:
#     150
#     14023
#     29047
#     48034
#     63387
#     81919
#     92799
#     108007
#     127610
#     145762
#     168452
# 
# Disc length: 2523
# 
# Revision: 2
# Processed by: cddbd v1.5.2PL0 Copyright (c) Steve Scherf et al.
# Submitted via: fre:ac v1.0.31
# 
DISCID=8809d90b
DTITLE=Passenger - Whispers
DYEAR=2014
DGENRE=Folk
TTITLE0=Coins In A Fountain
TTITLE1=27
TTITLE2=Heart's On Fire
TTITLE3=Bullets
TTITLE4=Golden Leaves
TTITLE5=Thunder
TTITLE6=Rolling Stone
TTITLE7=Start A Fire
TTITLE8=Whispers
TTITLE9=Riding To New York
TTITLE10=Scare Away The Dark
EXTD=
EXTT0=
EXTT1=
EXTT2=
EXTT3=
EXTT4=
EXTT5=
EXTT6=
EXTT7=
EXTT8=
EXTT9=
EXTT10=
PLAYORDER=
